<svg
  height="32"
  viewBox="0 0 192 192"
  width="32"
  xmlns="http://www.w3.org/2000/svg"
>
  <title>Women’s Refuge</title>
  <circle cx="96" cy="96" fill="#445e5c" r="96" />
  <circle cx="96" cy="95" fill="#fff" r="87" />
  <path d="m96 11a84 84 0 0 0 0 168z" fill="#445e5c" />
  <g fill="none" stroke="#fff" stroke-linecap="round" stroke-width="3">
    <path
      d="m96 50.5h-48a2.5 2.5 0 0 0 -2.5 2.5v70a2.5 2.5 0 0 0 2.5 2.5h48"
      stroke-dasharray="6"
    />
    <path
      d="m99.76 135.5h-43a2 2 0 0 0 -1.76 1.11l-4 8a2 2 0 0 0 .08 1.94c.37.6 1 .95 3.71.95h44.79"
      stroke-dasharray="7 6"
    />
  </g>
  <g fill="none" stroke="#445e5c">
    <path d="m96 52h47a1 1 0 0 1 1 1v70a1 1 0 0 1 -1 1h-47" stroke-width="6" />
    <path
      d="m96 135.5h39a2 2 0 0 1 1.79 1.11l4 8a2 2 0 0 1 -1.79 2.89h-43"
      stroke-width="3"
    />
    <path d="m96 141h43m-37-5v5m8.5-5 .5 5m8-5 1 5m7-5 4 11" stroke-width="2" />
  </g>
</svg>
